<svg xmlns="http://www.w3.org/2000/svg" viewBox="0 0 16 14.22"><defs><style>.cls-1{fill:#fff;}.cls-2{fill:#0083be;}</style></defs><title>a_m</title><g id="Calque_2" data-name="Calque 2"><g id="Calque_1-2" data-name="Calque 1"><g id="Calque_1-2-2" data-name="Calque 1-2-2"><rect class="cls-1" width="16" height="14.22" rx="2.98"/><path class="cls-2" d="M13,1a2,2,0,0,1,2,2v8.26a2,2,0,0,1-2,2H3a2,2,0,0,1-2-2V3A2,2,0,0,1,3,1H13m0-1H3A3,3,0,0,0,0,3v8.26a3,3,0,0,0,3,3H13a3,3,0,0,0,3-3V3a3,3,0,0,0-3-3Z"/><polygon class="cls-1" points="10.36 10.28 9.78 8.57 6.21 8.57 5.64 10.28 5.38 10.28 7.78 3.95 7.84 3.95 6.22 8.5 9.77 8.5 8.16 3.95 8.22 3.95 10.63 10.28 10.36 10.28"/><path class="cls-2" d="M8.57,3.45H7.43L4.65,10.78H6l.57-1.71H9.42L10,10.78h1.35L8.57,3.45ZM6.93,8,8,5,9.06,8Z"/></g></g></g></svg>