<svg xmlns="http://www.w3.org/2000/svg" viewBox="0 0 16 14.22"><defs><style>.cls-1{fill:#75ad0a;}.cls-2{fill:#fff;}</style></defs><title>os</title><g id="Calque_2" data-name="Calque 2"><g id="Calque_1-2" data-name="Calque 1"><g id="Calque_1-2-2" data-name="Calque 1-2"><rect class="cls-1" width="16" height="14.22" rx="2.98"/><path class="cls-2" d="M7.93,7.3a4.55,4.55,0,0,1-.38,1.9,2.75,2.75,0,0,1-1.06,1.25,2.84,2.84,0,0,1-1.6.43,2.89,2.89,0,0,1-1.59-.44A2.8,2.8,0,0,1,2.21,9.2a4.36,4.36,0,0,1-.38-1.86V6.93A4.31,4.31,0,0,1,2.21,5,2.88,2.88,0,0,1,3.29,3.77a3,3,0,0,1,1.6-.43,3,3,0,0,1,1.59.43A2.89,2.89,0,0,1,7.56,5a4.37,4.37,0,0,1,.38,1.88ZM6.65,6.92a3.19,3.19,0,0,0-.46-1.87,1.51,1.51,0,0,0-1.3-.65,1.52,1.52,0,0,0-1.3.65,3.08,3.08,0,0,0-.47,1.83V7.3a3.15,3.15,0,0,0,.47,1.87,1.5,1.5,0,0,0,1.3.66,1.49,1.49,0,0,0,1.3-.64A3.29,3.29,0,0,0,6.65,7.3Z"/><path class="cls-2" d="M13,8.89a.85.85,0,0,0-.34-.74,3.73,3.73,0,0,0-1.23-.53A6,6,0,0,1,10.05,7,1.89,1.89,0,0,1,9,5.38a1.81,1.81,0,0,1,.73-1.46,2.92,2.92,0,0,1,1.88-.58A3.18,3.18,0,0,1,13,3.61a2.2,2.2,0,0,1,.94.82,2,2,0,0,1,.34,1.15H13a1.16,1.16,0,0,0-.36-.9,1.53,1.53,0,0,0-1-.32,1.59,1.59,0,0,0-1,.27.9.9,0,0,0-.35.74.81.81,0,0,0,.37.68,4.46,4.46,0,0,0,1.23.52,5.77,5.77,0,0,1,1.38.58,2.1,2.1,0,0,1,.76.75,2,2,0,0,1,.25,1,1.78,1.78,0,0,1-.71,1.46,3,3,0,0,1-1.9.54,3.54,3.54,0,0,1-1.47-.29,2.44,2.44,0,0,1-1-.82,2,2,0,0,1-.37-1.21H10.1a1.19,1.19,0,0,0,.41,1,1.79,1.79,0,0,0,1.19.34,1.51,1.51,0,0,0,1-.27A.85.85,0,0,0,13,8.89Z"/></g></g></g></svg>