<svg xmlns="http://www.w3.org/2000/svg" viewBox="0 0 16 14.24"><defs><style>.cls-1{fill:#0a5e75;}.cls-2{fill:#0083be;}.cls-3{fill:#fff;}</style></defs><title>s-Action-m</title><g id="Calque_2" data-name="Calque 2"><g id="Calque_1-2" data-name="Calque 1"><g id="Calque_1-2-2" data-name="Calque 1-2"><path class="cls-1" d="M15.08.81A3,3,0,0,1,16,3v8.26a3,3,0,0,1-3,3H3a3,3,0,0,1-2.11-.88Z"/><path class="cls-2" d="M.87,13.35A3,3,0,0,1,0,11.25V3A3,3,0,0,1,3,0H13a3,3,0,0,1,2.06.81Z"/><path class="cls-3" d="M5.89,8.89a.87.87,0,0,0-.34-.74,3.82,3.82,0,0,0-1.23-.53A6,6,0,0,1,2.91,7a1.89,1.89,0,0,1-1-1.64,1.76,1.76,0,0,1,.73-1.46A2.87,2.87,0,0,1,4.5,3.34a3.18,3.18,0,0,1,1.36.27,2.26,2.26,0,0,1,.94.82,2,2,0,0,1,.35,1.15H5.89a1.16,1.16,0,0,0-.36-.9,1.53,1.53,0,0,0-1-.32,1.56,1.56,0,0,0-1,.26.88.88,0,0,0-.35.74A.85.85,0,0,0,3.56,6a4.46,4.46,0,0,0,1.23.52,5.33,5.33,0,0,1,1.37.58,2.16,2.16,0,0,1,.76.74,1.94,1.94,0,0,1,.25,1,1.75,1.75,0,0,1-.71,1.46,3,3,0,0,1-1.9.54,3.56,3.56,0,0,1-1.47-.28,2.39,2.39,0,0,1-1-.82,2,2,0,0,1-.37-1.21H3a1.2,1.2,0,0,0,.42,1,1.78,1.78,0,0,0,1.18.34,1.48,1.48,0,0,0,1-.27A.86.86,0,0,0,5.89,8.89Z"/><path class="cls-3" d="M12.39,9.07H9.55L9,10.78H7.63L10.4,3.45h1.14l2.78,7.33H13ZM9.9,8H12L11,5Z"/></g></g></g></svg>