<svg xmlns="http://www.w3.org/2000/svg" viewBox="0 0 16 14.22"><defs><style>.cls-1{fill:#ffab00;}.cls-2{fill:#fff;}</style></defs><title>Fichier 2</title><g id="Calque_2" data-name="Calque 2"><g id="Calque_1-2" data-name="Calque 1"><g id="Calque_1-2-2" data-name="Calque 1-2"><rect class="cls-1" width="16" height="14.22" rx="2.98"/><path class="cls-2" d="M7.48,7.3a4.39,4.39,0,0,1-.37,1.9A2.77,2.77,0,0,1,6,10.45a2.89,2.89,0,0,1-1.59.44,2.87,2.87,0,0,1-1.59-.44A2.79,2.79,0,0,1,1.77,9.21a4.4,4.4,0,0,1-.39-1.86V6.93A4.61,4.61,0,0,1,1.76,5,2.84,2.84,0,0,1,2.85,3.77a3,3,0,0,1,1.59-.43A3,3,0,0,1,6,3.77,2.75,2.75,0,0,1,7.1,5a4.35,4.35,0,0,1,.39,1.88ZM6.21,6.92a3.27,3.27,0,0,0-.46-1.87A1.52,1.52,0,0,0,4.44,4.4a1.52,1.52,0,0,0-1.3.65,3.08,3.08,0,0,0-.47,1.83V7.3a3.11,3.11,0,0,0,.47,1.87,1.51,1.51,0,0,0,1.31.66,1.49,1.49,0,0,0,1.3-.64A3.29,3.29,0,0,0,6.21,7.3Z"/><path class="cls-2" d="M14.61,7.3a4.54,4.54,0,0,1-.37,1.9,2.83,2.83,0,0,1-1.07,1.25,3.1,3.1,0,0,1-3.19,0A2.83,2.83,0,0,1,8.9,9.21a4.26,4.26,0,0,1-.39-1.86V6.93A4.61,4.61,0,0,1,8.89,5,2.84,2.84,0,0,1,10,3.77a3.15,3.15,0,0,1,3.18,0A2.81,2.81,0,0,1,14.23,5a4.49,4.49,0,0,1,.38,1.88Zm-1.28-.38a3.19,3.19,0,0,0-.46-1.87,1.51,1.51,0,0,0-1.31-.65,1.51,1.51,0,0,0-1.29.65A3.08,3.08,0,0,0,9.8,6.88V7.3a3.15,3.15,0,0,0,.47,1.87,1.5,1.5,0,0,0,1.3.66,1.51,1.51,0,0,0,1.31-.64,3.3,3.3,0,0,0,.45-1.89Z"/></g></g></g></svg>