<svg xmlns="http://www.w3.org/2000/svg" viewBox="0 0 16 14.22"><defs><style>.cls-1{fill:#fff;}.cls-2{fill:#0083be;}</style></defs><title>sa_m</title><g id="Calque_2" data-name="Calque 2"><g id="Calque_1-2" data-name="Calque 1"><g id="Calque_1-2-2" data-name="Calque 1-2"><g id="Calque_1-2-2-2" data-name="Calque 1-2-2"><rect class="cls-1" width="16" height="14.22" rx="2.98"/><path class="cls-2" d="M13,1a2,2,0,0,1,2,2v8.26a2,2,0,0,1-2,2H3a2,2,0,0,1-2-2V3A2,2,0,0,1,3,1H13m0-1H3A3,3,0,0,0,0,3v8.26a3,3,0,0,0,3,3H13a3,3,0,0,0,3-3V3a3,3,0,0,0-3-3Z"/><path class="cls-2" d="M4.35,3.34a2.85,2.85,0,0,0-1.71.56,1.76,1.76,0,0,0-.73,1.46A1.88,1.88,0,0,0,2.91,7a6.11,6.11,0,0,0,1.41.62,4.2,4.2,0,0,1,1.23.53.86.86,0,0,1,.34.74.87.87,0,0,1-.29.71,1.47,1.47,0,0,1-.86.28H4.47a1.83,1.83,0,0,1-1-.34,1.2,1.2,0,0,1-.42-1H1.72a2,2,0,0,0,.37,1.21,2.42,2.42,0,0,0,1,.82,3.49,3.49,0,0,0,1.39.28h.26a3,3,0,0,0,1.72-.55,1.75,1.75,0,0,0,.71-1.46,1.93,1.93,0,0,0-.25-1,2.15,2.15,0,0,0-.76-.74,5.33,5.33,0,0,0-1.37-.58A4.6,4.6,0,0,1,3.56,6a.84.84,0,0,1-.38-.64.88.88,0,0,1,.35-.74,1.59,1.59,0,0,1,.87-.27h.19a1.53,1.53,0,0,1,.94.32,1.13,1.13,0,0,1,.36.9H7.15A2,2,0,0,0,6.8,4.43a2.26,2.26,0,0,0-.94-.82,3.13,3.13,0,0,0-1.28-.27H4.35Z"/><path class="cls-2" d="M11.54,3.45H10.4L7.63,10.78H9l.55-1.71h2.84L13,10.78h1.32L11.54,3.45ZM9.91,8,11,5l1,3Z"/></g></g></g></g></svg>