<svg xmlns="http://www.w3.org/2000/svg" viewBox="0 0 16 14.24"><defs><style>.cls-1{fill:#0a5e75;}.cls-2{fill:#0083be;}.cls-3{fill:#fff;}</style></defs><title>Action-m</title><g id="Calque_2" data-name="Calque 2"><g id="Calque_1-2" data-name="Calque 1"><g id="Calque_1-2-2" data-name="Calque 1-2"><path class="cls-1" d="M15.08.81A3,3,0,0,1,16,3v8.26a3,3,0,0,1-3,3H3a3,3,0,0,1-2.11-.88Z"/><path class="cls-2" d="M.87,13.35A3,3,0,0,1,0,11.25V3A3,3,0,0,1,3,0H13a3,3,0,0,1,2.06.81Z"/><path class="cls-3" d="M9.42,9.07H6.57L6,10.78H4.65L7.43,3.45H8.57l2.78,7.33H10ZM6.93,8H9.06L8,5Z"/></g></g></g></svg>